<svg width="85" height="26" viewBox="0 0 85 26" fill="none" xmlns="http://www.w3.org/2000/svg">
<g clip-path="url(#clip0_2069_217)">
<path d="M22.127 0H25.9948V26H22.127V0ZM39.5322 17.706C39.5322 21.685 36.4215 22.0022 35.4961 22.0022C33.1841 22.0022 32.7635 19.6747 32.7635 18.2707V8.32H28.8957V18.2499C28.8957 20.7147 29.6151 22.749 30.876 24.1051C31.9899 25.3042 33.6589 25.9594 35.4671 25.9594C36.7493 25.9594 38.5653 25.5299 39.5322 24.5804V26H43.4001V8.32H39.5322V17.706ZM51.1358 2.08H47.2679V8.32H44.367V12.48H47.2679V26H51.1358V12.48H54.0366V8.32H51.1358V2.08ZM66.2174 20.7137C65.3752 21.528 64.2632 21.9794 63.0429 21.9794C60.3528 21.9794 58.3773 19.8546 58.3773 16.9374C58.3773 14.0202 60.29 11.985 63.0429 11.985C64.2419 11.985 65.3752 12.4145 66.2387 13.2288L66.8256 13.7717L69.4335 10.9678L68.7808 10.3345C67.2463 8.84416 65.2089 8.008 63.0419 8.008C58.2071 8.008 54.6961 11.7603 54.6961 16.9156C54.6961 22.049 58.2913 25.9355 63.0419 25.9355C65.2495 25.9355 67.3082 25.0994 68.8234 23.5851L69.4538 22.9518L66.8053 20.15L66.2174 20.7137ZM83.2388 9.86128C82.1249 8.6632 80.8195 8.008 79.0113 8.008C77.7291 8.008 76.2767 8.43752 75.3098 9.386V0H71.4419V26H75.3098V16.2604C75.3098 12.2814 77.938 11.9652 78.8633 11.9652C81.1753 11.9652 81.1115 14.2938 81.1115 15.6957V26H84.9794V15.7175C84.9794 13.2527 84.5007 11.2185 83.2388 9.86128Z" fill="#FEFEFE"/>
<path d="M62.9156 13.9746C63.6573 13.9746 64.3685 14.2915 64.893 14.8555C65.4174 15.4196 65.712 16.1846 65.712 16.9823C65.712 17.78 65.4174 18.545 64.893 19.109C64.3685 19.6731 63.6573 19.99 62.9156 19.99C62.1739 19.99 61.4626 19.6731 60.9382 19.109C60.4138 18.545 60.1191 17.78 60.1191 16.9823C60.1191 16.1846 60.4138 15.4196 60.9382 14.8555C61.4626 14.2915 62.1739 13.9746 62.9156 13.9746Z" fill="#FF3D2E"/>
<path d="M16.7122 19.4693C15.2414 21.0969 13.2437 21.9788 11.1415 21.9788C6.83275 21.9788 3.6998 18.3388 3.6998 13.3426C3.6998 8.32358 6.83275 4.68358 11.1415 4.68358C13.2234 4.68358 15.1989 5.56446 16.6919 7.17022L17.2798 7.80358L19.8654 5.02262L19.2978 4.38926C17.1541 2.01494 14.2532 0.727417 11.1415 0.727417C4.79343 0.727417 0.0214844 6.1531 0.0214844 13.3645C0.0214844 20.554 4.8147 25.9578 11.1415 25.9578C14.2745 25.9578 17.1754 24.6474 19.3191 22.2731L19.8867 21.6397L17.3223 18.8141L16.7122 19.4693Z" fill="#FEFEFE"/>
</g>
<defs>
<clipPath id="clip0_2069_217">
<rect width="85" height="26" fill="white"/>
</clipPath>
</defs>
</svg>
