<svg width="165" height="164" viewBox="0 0 165 164" fill="none" xmlns="http://www.w3.org/2000/svg">
<circle cx="83" cy="81" r="49.5" stroke="#1A1A1A"/>
<path d="M76.7817 144.848L74.8174 157.791L66.3996 156.513L66.6979 154.548L72.7711 155.469L73.3044 151.956L67.6672 151.1L67.9655 149.135L73.6027 149.99L74.1388 146.458L68.015 145.528L68.3133 143.563L76.7817 144.848Z" fill="#0E0E0E"/>
<path d="M56.4537 153.519L55.543 148L55.4479 147.962L50.9879 151.349L48.4748 150.352L54.6385 145.756L53.2452 138.161L55.7999 139.175L56.7521 144.677L56.8471 144.714L61.3132 141.364L63.856 142.373L57.5972 146.931L58.9787 154.521L56.4537 153.519Z" fill="#0E0E0E"/>
<path d="M49.5674 135.843L42.1204 146.61L38.083 143.817C37.2559 143.245 36.6686 142.611 36.3212 141.915C35.9703 141.216 35.8378 140.497 35.9237 139.759C36.0037 139.021 36.2801 138.311 36.7528 137.627C37.2304 136.937 37.8 136.424 38.4618 136.089C39.1236 135.754 39.845 135.629 40.6261 135.713C41.4048 135.801 42.2094 136.132 43.04 136.707L45.7158 138.558L44.6068 140.161L42.1938 138.492C41.7102 138.157 41.256 137.968 40.8312 137.923C40.4064 137.877 40.0186 137.951 39.6678 138.144C39.3135 138.334 39.0042 138.62 38.74 139.002C38.4757 139.384 38.3184 139.773 38.2679 140.168C38.2138 140.56 38.287 140.945 38.4875 141.322C38.6819 141.7 39.0227 142.058 39.5099 142.395L41.2973 143.631L47.617 134.494L49.5674 135.843Z" fill="#0E0E0E"/>
<path d="M38.5054 127.276L28.9544 136.229L27.3326 134.499L35.4333 126.906L31.4902 122.699L32.9406 121.34L38.5054 127.276Z" fill="#0E0E0E"/>
<path d="M18.5836 110.584C19.8087 109.885 20.989 109.516 22.1243 109.476C23.2539 109.435 24.2749 109.677 25.1874 110.201C26.0977 110.722 26.8369 111.48 27.405 112.476C27.9731 113.472 28.2507 114.496 28.2379 115.548C28.2192 116.599 27.9059 117.602 27.298 118.557C26.6842 119.511 25.7666 120.336 24.5452 121.033C23.3201 121.732 22.1427 122.102 21.0132 122.143C19.8778 122.182 18.8549 121.942 17.9446 121.421C17.0321 120.896 16.2918 120.136 15.7238 119.141C15.1557 118.145 14.8791 117.123 14.8941 116.074C14.9069 115.022 15.2202 114.019 15.834 113.065C16.4419 112.11 17.3585 111.283 18.5836 110.584ZM19.7651 112.655C18.9027 113.147 18.2525 113.697 17.8145 114.305C17.3706 114.912 17.1321 115.538 17.0989 116.185C17.062 116.834 17.2199 117.468 17.5726 118.086C17.9252 118.704 18.3903 119.162 18.9678 119.461C19.5417 119.761 20.2036 119.877 20.9537 119.807C21.6979 119.736 22.5012 119.454 23.3636 118.962C24.226 118.47 24.8792 117.92 25.323 117.314C25.7611 116.706 25.9985 116.077 26.0354 115.428C26.0686 114.781 25.9089 114.149 25.5562 113.531C25.2036 112.913 24.7403 112.453 24.1665 112.153C23.589 111.854 22.9281 111.741 22.1838 111.812C21.4338 111.882 20.6275 112.163 19.7651 112.655Z" fill="#0E0E0E"/>
<path d="M22.5452 102.455L9.92588 105.937L8.62006 101.205C8.35255 100.235 8.29654 99.3753 8.45201 98.6251C8.60636 97.8708 8.94104 97.2413 9.45605 96.7367C9.96582 96.2291 10.6233 95.8643 11.4284 95.6421C12.2377 95.4188 12.9877 95.3975 13.6786 95.5782C14.3642 95.7559 14.961 96.1327 15.4692 96.7087C15.9732 97.2857 16.359 98.059 16.6265 99.0284L17.5566 102.399L15.6588 102.923L14.8137 99.8602C14.6573 99.2933 14.4512 98.8507 14.1953 98.5322C13.9354 98.215 13.6296 98.012 13.278 97.9234C12.9212 97.8317 12.5189 97.8477 12.0711 97.9712C11.6234 98.0948 11.2657 98.2885 10.9981 98.5525C10.7265 98.8175 10.5584 99.1534 10.4938 99.5603C10.4251 99.9682 10.4696 100.458 10.6271 101.029L11.2052 103.124L21.9144 100.169L22.5452 102.455ZM15.0282 97.5134L19.8842 92.8115L20.5881 95.3624L15.7168 100.009L15.0282 97.5134Z" fill="#0E0E0E"/>
<path d="M19.3497 87.8761L6.2703 88.4255L5.91293 79.9188L7.89911 79.8354L8.15694 85.9727L11.7078 85.8236L11.4685 80.1269L13.4546 80.0434L13.694 85.7401L17.264 85.5901L17.004 79.4017L18.9902 79.3183L19.3497 87.8761Z" fill="#0E0E0E"/>
<path d="M8.49233 61.3289L9.478 58.5995L19.7199 58.166L19.772 58.0217L12.1701 51.1445L13.1558 48.4151L25.4685 52.8614L24.6956 55.0017L16.2366 51.947L16.1954 52.0612L23.3894 58.5057L22.8119 60.1049L13.1422 60.4596L13.1009 60.5738L21.5779 63.635L20.805 65.7753L8.49233 61.3289Z" fill="#0E0E0E"/>
<path d="M29.6364 35.2503C30.7801 36.0758 31.6052 36.997 32.1114 38.014C32.6168 39.025 32.8198 40.0544 32.7206 41.1022C32.6238 42.1464 32.2401 43.1333 31.5693 44.0629C30.8984 44.9924 30.0815 45.6693 29.1184 46.0936C28.1543 46.512 27.1117 46.6424 25.9904 46.4849C24.8682 46.3214 23.7369 45.8282 22.5966 45.0052C21.4528 44.1798 20.6283 43.2616 20.1229 42.2505C19.6167 41.2335 19.4119 40.2029 19.5086 39.1586C19.6078 38.1109 19.9929 37.1222 20.6637 36.1927C21.3345 35.2631 22.1502 34.588 23.1108 34.1671C24.0739 33.7428 25.1166 33.6124 26.2388 33.7759C27.3601 33.9334 28.4926 34.4249 29.6364 35.2503ZM28.2411 37.1837C27.436 36.6026 26.666 36.2388 25.931 36.092C25.1951 35.9393 24.5259 35.9819 23.9234 36.2197C23.3174 36.455 22.8061 36.8612 22.3897 37.4383C21.9732 38.0154 21.7488 38.6285 21.7164 39.2778C21.6806 39.9246 21.8498 40.5749 22.2241 41.2286C22.5974 41.8764 23.1867 42.4908 23.9918 43.0719C24.7969 43.6529 25.5675 44.0198 26.3033 44.1725C27.0383 44.3192 27.7087 44.2749 28.3147 44.0396C28.9173 43.8018 29.4268 43.3943 29.8432 42.8173C30.2597 42.2402 30.4858 41.6283 30.5217 40.9815C30.5541 40.3322 30.3836 39.6836 30.0103 39.0359C29.636 38.3821 29.0463 37.7647 28.2411 37.1837Z" fill="#0E0E0E"/>
<path d="M38.6769 35.4878L30.2793 25.4452L34.0453 22.2961C34.8168 21.651 35.5761 21.2438 36.3233 21.0745C37.0738 20.9024 37.7853 20.9463 38.458 21.2059C39.1311 21.4596 39.7356 21.9068 40.2714 22.5475C40.8099 23.1915 41.1401 23.8653 41.2618 24.569C41.3841 25.2666 41.2885 25.966 40.9748 26.6671C40.6585 27.3649 40.1145 28.0364 39.343 28.6815L36.6608 30.9244L35.3979 29.4141L37.835 27.3762C38.2861 26.999 38.6035 26.628 38.7873 26.2632C38.9684 25.8951 39.0265 25.5328 38.9615 25.176C38.897 24.8133 38.7158 24.4538 38.4179 24.0975C38.1199 23.7411 37.7954 23.4959 37.4443 23.3617C37.0905 23.2243 36.7151 23.2104 36.3181 23.3202C35.9184 23.4268 35.4913 23.67 35.0369 24.05L33.3697 25.4441L40.4961 33.9665L38.6769 35.4878ZM40.0597 26.599L46.351 29.0707L44.3209 30.7682L38.0738 28.2597L40.0597 26.599Z" fill="#0E0E0E"/>
<path d="M50.6212 26.539L44.7022 14.8627L52.2964 11.013L53.1952 12.7861L47.7162 15.5636L49.3231 18.7335L54.4087 16.1555L55.3076 17.9286L50.222 20.5066L51.8376 23.6937L57.3622 20.8931L58.261 22.6662L50.6212 26.539Z" fill="#0E0E0E"/>
<path d="M76.5258 11.7402L76.8041 13.6246L70.9739 14.4856L70.6956 12.6012L76.5258 11.7402Z" fill="#0E0E0E"/>
<path d="M90.107 18.3312L92.3984 5.44237L100.781 6.93264L100.433 8.88988L94.3853 7.81469L93.7632 11.3138L99.3769 12.3118L99.0289 14.269L93.4153 13.271L92.7898 16.789L98.8881 17.8732L98.5402 19.8304L90.107 18.3312Z" fill="#0E0E0E"/>
<path d="M110.648 10.1772L111.418 15.7179L111.512 15.758L116.057 12.4846L118.544 13.5454L112.266 17.9835L113.466 25.6117L110.938 24.5333L110.126 19.0094L110.031 18.9693L105.482 22.2058L102.966 21.1324L109.338 16.7345L108.149 9.11132L110.648 10.1772Z" fill="#0E0E0E"/>
<path d="M117.084 28.0216L124.801 17.4472L128.767 20.3412C129.579 20.9341 130.15 21.5829 130.48 22.2878C130.813 22.9951 130.927 23.7168 130.823 24.4529C130.724 25.1881 130.43 25.8913 129.94 26.5625C129.445 27.2406 128.862 27.7387 128.192 28.0569C127.522 28.375 126.798 28.4821 126.019 28.378C125.243 28.2705 124.447 27.9191 123.631 27.3237L121.003 25.4057L122.153 23.8309L124.522 25.5605C124.997 25.9072 125.447 26.1085 125.87 26.1643C126.294 26.2201 126.683 26.1562 127.039 25.9726C127.398 25.7915 127.714 25.5133 127.988 25.1381C128.262 24.7629 128.429 24.3785 128.49 23.9848C128.554 23.5936 128.49 23.207 128.299 22.8251C128.114 22.4422 127.783 22.0762 127.304 21.727L125.549 20.4458L119 29.4196L117.084 28.0216Z" fill="#0E0E0E"/>
<path d="M127.927 36.8663L137.701 28.1583L139.279 29.929L130.988 37.3146L134.824 41.6196L133.339 42.942L127.927 36.8663Z" fill="#0E0E0E"/>
<path d="M147.419 54.0575C146.176 54.7253 144.987 55.0645 143.851 55.0751C142.721 55.0875 141.706 54.8201 140.807 54.2727C139.911 53.7292 139.191 52.9525 138.648 51.9428C138.105 50.9331 137.854 49.9024 137.893 48.8507C137.939 47.8007 138.277 46.806 138.909 45.8665C139.547 44.9287 140.485 44.1269 141.724 43.4612C142.966 42.7934 144.152 42.4533 145.283 42.4409C146.419 42.4303 147.435 42.6967 148.332 43.2403C149.231 43.7876 149.952 44.5662 150.494 45.5759C151.037 46.5856 151.288 47.6144 151.246 48.6624C151.207 49.714 150.868 50.7088 150.23 51.6466C149.598 52.5861 148.661 53.3898 147.419 54.0575ZM146.29 51.9574C147.165 51.4873 147.829 50.9539 148.282 50.3571C148.741 49.7621 148.995 49.1416 149.045 48.4957C149.098 47.8478 148.956 47.2104 148.619 46.5836C148.283 45.9567 147.829 45.4868 147.259 45.1738C146.693 44.8588 146.035 44.7266 145.283 44.7774C144.537 44.8299 143.727 45.0912 142.852 45.5613C141.978 46.0313 141.311 46.5639 140.852 47.159C140.399 47.7558 140.145 48.3781 140.092 49.026C140.042 49.6719 140.186 50.3083 140.523 50.9351C140.86 51.5619 141.311 52.0329 141.877 52.3479C142.447 52.6609 143.105 52.7912 143.851 52.7386C144.602 52.6879 145.415 52.4274 146.29 51.9574Z" fill="#0E0E0E"/>
<path d="M143.252 62.084L155.955 58.9224L157.141 63.6862C157.384 64.6621 157.418 65.5231 157.244 66.2691C157.07 67.0193 156.72 67.6401 156.192 68.1315C155.67 68.626 155.003 68.9741 154.193 69.1758C153.378 69.3785 152.628 69.3808 151.942 69.1827C151.261 68.9877 150.674 68.5959 150.18 68.0073C149.691 67.4176 149.325 66.6348 149.082 65.6589L148.237 62.266L150.148 61.7905L150.915 64.8733C151.057 65.444 151.252 65.8917 151.5 66.2165C151.752 66.5403 152.052 66.7509 152.401 66.8484C152.756 66.9491 153.158 66.9433 153.609 66.8311C154.06 66.7189 154.422 66.5343 154.696 66.2773C154.975 66.0192 155.151 65.6876 155.226 65.2825C155.305 64.8764 155.273 64.386 155.13 63.8112L154.605 61.7022L143.825 64.3852L143.252 62.084ZM150.641 67.214L145.668 71.7914L145.029 69.2234L150.016 64.7018L150.641 67.214Z" fill="#0E0E0E"/>
<path d="M146.078 76.7386L159.167 76.5205L159.309 85.0335L157.321 85.0666L157.219 78.9247L153.665 78.984L153.76 84.6849L151.773 84.718L151.678 79.0171L148.105 79.0766L148.208 85.2696L146.22 85.3028L146.078 76.7386Z" fill="#0E0E0E"/>
<path d="M156.26 103.553L155.206 106.257L144.956 106.431L144.9 106.573L152.326 113.641L151.271 116.345L139.075 111.588L139.902 109.468L148.281 112.736L148.325 112.623L141.296 105.998L141.914 104.414L151.59 104.304L151.634 104.191L143.237 100.916L144.064 98.7962L156.26 103.553Z" fill="#0E0E0E"/>
<path d="M134.461 129.087C133.339 128.233 132.537 127.291 132.057 126.262C131.578 125.238 131.401 124.204 131.526 123.159C131.649 122.118 132.058 121.141 132.752 120.228C133.446 119.316 134.28 118.66 135.254 118.26C136.228 117.867 137.274 117.763 138.391 117.949C139.508 118.14 140.627 118.662 141.746 119.514C142.868 120.368 143.669 121.307 144.149 122.33C144.629 123.36 144.808 124.395 144.685 125.437C144.559 126.481 144.149 127.46 143.455 128.372C142.761 129.285 141.928 129.939 140.957 130.335C139.984 130.735 138.938 130.839 137.82 130.647C136.704 130.461 135.584 129.941 134.461 129.087ZM135.905 127.19C136.695 127.791 137.456 128.174 138.187 128.34C138.919 128.511 139.589 128.485 140.197 128.263C140.809 128.043 141.33 127.65 141.761 127.083C142.192 126.517 142.432 125.91 142.481 125.261C142.533 124.616 142.38 123.961 142.023 123.298C141.666 122.641 141.092 122.012 140.302 121.411C139.512 120.81 138.751 120.424 138.019 120.252C137.288 120.087 136.617 120.114 136.005 120.334C135.397 120.557 134.877 120.951 134.446 121.517C134.015 122.084 133.774 122.69 133.721 123.335C133.673 123.984 133.827 124.636 134.183 125.293C134.541 125.956 135.115 126.588 135.905 127.19Z" fill="#0E0E0E"/>
<path d="M125.43 128.621L133.571 138.873L129.726 141.926C128.939 142.551 128.169 142.939 127.418 143.089C126.664 143.242 125.953 143.18 125.287 142.904C124.621 142.633 124.028 142.171 123.509 141.517C122.987 140.859 122.674 140.177 122.57 139.471C122.465 138.77 122.578 138.074 122.91 137.381C123.244 136.691 123.804 136.034 124.592 135.408L127.33 133.234L128.554 134.776L126.067 136.751C125.606 137.117 125.279 137.48 125.086 137.84C124.896 138.203 124.829 138.564 124.885 138.922C124.94 139.287 125.112 139.651 125.401 140.014C125.69 140.378 126.008 140.631 126.355 140.774C126.706 140.921 127.081 140.944 127.48 140.844C127.883 140.748 128.316 140.516 128.779 140.147L130.481 138.796L123.573 130.096L125.43 128.621ZM123.823 137.472L117.596 134.842L119.669 133.196L125.85 135.862L123.823 137.472Z" fill="#0E0E0E"/>
<path d="M113.263 137.264L118.884 149.087L111.195 152.743L110.341 150.948L115.889 148.31L114.363 145.1L109.213 147.549L108.36 145.753L113.509 143.305L111.975 140.078L106.381 142.738L105.527 140.942L113.263 137.264Z" fill="#0E0E0E"/>
<path d="M86.992 151.402L86.7615 149.511L92.6117 148.798L92.8422 150.689L86.992 151.402Z" fill="#0E0E0E"/>
</svg>
