<svg width="19" height="18" viewBox="0 0 19 18" fill="none" xmlns="http://www.w3.org/2000/svg">
<path d="M2.81127 2.43515C5.9183 -0.559903 10.5422 -0.440528 13.4179 2.43515C16.1677 5.18502 16.3359 9.53899 13.9222 12.485L18.1908 16.7541L17.1302 17.8147L12.8611 13.5461C9.91511 15.9597 5.56114 15.7916 2.81127 13.0418C-0.0644069 10.1661 -0.199623 5.33753 2.81127 2.43515ZM12.3572 3.49581C10.0141 1.15267 6.21508 1.15267 3.87193 3.49581C1.52879 5.83896 1.52879 9.63795 3.87193 11.9811C6.21508 14.3242 10.0141 14.3242 12.3572 11.9811C14.7004 9.63795 14.7004 5.83896 12.3572 3.49581Z" fill="#0E0E0E"/>
</svg>
