<svg width="86" height="26" viewBox="0 0 86 26" fill="none" xmlns="http://www.w3.org/2000/svg">
<path d="M14.3977 1.72727H19.3182V16.8409C19.3182 18.5379 18.9129 20.0227 18.1023 21.2955C17.2992 22.5682 16.1742 23.5606 14.7273 24.2727C13.2803 24.9773 11.5947 25.3295 9.67045 25.3295C7.73864 25.3295 6.04924 24.9773 4.60227 24.2727C3.1553 23.5606 2.0303 22.5682 1.22727 21.2955C0.424242 20.0227 0.0227273 18.5379 0.0227273 16.8409V1.72727H4.94318V16.4205C4.94318 17.3068 5.13636 18.0947 5.52273 18.7841C5.91667 19.4735 6.4697 20.0152 7.18182 20.4091C7.89394 20.803 8.72348 21 9.67045 21C10.625 21 11.4545 20.803 12.1591 20.4091C12.8712 20.0152 13.4205 19.4735 13.8068 18.7841C14.2008 18.0947 14.3977 17.3068 14.3977 16.4205V1.72727ZM28.1165 14.9091V25H23.2756V7.54545H27.8892V10.625H28.0938C28.4801 9.60985 29.1278 8.80682 30.0369 8.21591C30.946 7.61742 32.0483 7.31818 33.3438 7.31818C34.5559 7.31818 35.6127 7.58333 36.5142 8.11364C37.4157 8.64394 38.1165 9.40151 38.6165 10.3864C39.1165 11.3636 39.3665 12.5303 39.3665 13.8864V25H34.5256V14.75C34.5331 13.6818 34.2604 12.8485 33.7074 12.25C33.1544 11.6439 32.393 11.3409 31.4233 11.3409C30.7718 11.3409 30.196 11.4811 29.696 11.7614C29.2036 12.0417 28.8172 12.4508 28.5369 12.9886C28.2642 13.5189 28.1241 14.1591 28.1165 14.9091ZM43.1818 25V7.54545H48.0227V25H43.1818ZM45.6136 5.29545C44.8939 5.29545 44.2765 5.05682 43.7614 4.57954C43.2538 4.0947 43 3.51515 43 2.84091C43 2.17424 43.2538 1.60227 43.7614 1.125C44.2765 0.640151 44.8939 0.397726 45.6136 0.397726C46.3333 0.397726 46.947 0.640151 47.4545 1.125C47.9697 1.60227 48.2273 2.17424 48.2273 2.84091C48.2273 3.51515 47.9697 4.0947 47.4545 4.57954C46.947 5.05682 46.3333 5.29545 45.6136 5.29545ZM56.8778 25.3295C55.7642 25.3295 54.7718 25.1364 53.9006 24.75C53.0294 24.3561 52.34 23.7765 51.8324 23.0114C51.3324 22.2386 51.0824 21.2765 51.0824 20.125C51.0824 19.1553 51.2604 18.3409 51.6165 17.6818C51.9725 17.0227 52.4574 16.4924 53.071 16.0909C53.6847 15.6894 54.3816 15.3864 55.1619 15.1818C55.9498 14.9773 56.7756 14.8333 57.6392 14.75C58.6544 14.6439 59.4725 14.5455 60.0938 14.4545C60.715 14.3561 61.1657 14.2121 61.446 14.0227C61.7263 13.8333 61.8665 13.553 61.8665 13.1818V13.1136C61.8665 12.3939 61.6392 11.8371 61.1847 11.4432C60.7377 11.0492 60.1013 10.8523 59.2756 10.8523C58.4044 10.8523 57.7112 11.0455 57.196 11.4318C56.6809 11.8106 56.34 12.2879 56.1733 12.8636L51.696 12.5C51.9233 11.4394 52.3703 10.5227 53.0369 9.75C53.7036 8.9697 54.5634 8.37121 55.6165 7.95454C56.6771 7.5303 57.9044 7.31818 59.2983 7.31818C60.268 7.31818 61.196 7.43182 62.0824 7.65909C62.9763 7.88636 63.768 8.23864 64.4574 8.71591C65.1544 9.19318 65.7036 9.80682 66.1051 10.5568C66.5066 11.2992 66.7074 12.1894 66.7074 13.2273V25H62.1165V22.5795H61.9801C61.6998 23.125 61.3248 23.6061 60.8551 24.0227C60.3854 24.4318 59.821 24.7538 59.1619 24.9886C58.5028 25.2159 57.7415 25.3295 56.8778 25.3295ZM58.2642 21.9886C58.9763 21.9886 59.6051 21.8485 60.1506 21.5682C60.696 21.2803 61.1241 20.8939 61.4347 20.4091C61.7453 19.9242 61.9006 19.375 61.9006 18.7614V16.9091C61.7491 17.0076 61.5407 17.0985 61.2756 17.1818C61.018 17.2576 60.7263 17.3295 60.4006 17.3977C60.0748 17.4583 59.7491 17.5152 59.4233 17.5682C59.0975 17.6136 58.8021 17.6553 58.5369 17.6932C57.9688 17.7765 57.4725 17.9091 57.0483 18.0909C56.6241 18.2727 56.2945 18.5189 56.0597 18.8295C55.8248 19.1326 55.7074 19.5114 55.7074 19.9659C55.7074 20.625 55.946 21.1288 56.4233 21.4773C56.9081 21.8182 57.5218 21.9886 58.2642 21.9886ZM75.4403 25.3295C74.3267 25.3295 73.3343 25.1364 72.4631 24.75C71.5919 24.3561 70.9025 23.7765 70.3949 23.0114C69.8949 22.2386 69.6449 21.2765 69.6449 20.125C69.6449 19.1553 69.8229 18.3409 70.179 17.6818C70.535 17.0227 71.0199 16.4924 71.6335 16.0909C72.2472 15.6894 72.9441 15.3864 73.7244 15.1818C74.5123 14.9773 75.3381 14.8333 76.2017 14.75C77.2169 14.6439 78.035 14.5455 78.6562 14.4545C79.2775 14.3561 79.7282 14.2121 80.0085 14.0227C80.2888 13.8333 80.429 13.553 80.429 13.1818V13.1136C80.429 12.3939 80.2017 11.8371 79.7472 11.4432C79.3002 11.0492 78.6638 10.8523 77.8381 10.8523C76.9669 10.8523 76.2737 11.0455 75.7585 11.4318C75.2434 11.8106 74.9025 12.2879 74.7358 12.8636L70.2585 12.5C70.4858 11.4394 70.9328 10.5227 71.5994 9.75C72.2661 8.9697 73.1259 8.37121 74.179 7.95454C75.2396 7.5303 76.4669 7.31818 77.8608 7.31818C78.8305 7.31818 79.7585 7.43182 80.6449 7.65909C81.5388 7.88636 82.3305 8.23864 83.0199 8.71591C83.7169 9.19318 84.2661 9.80682 84.6676 10.5568C85.0691 11.2992 85.2699 12.1894 85.2699 13.2273V25H80.679V22.5795H80.5426C80.2623 23.125 79.8873 23.6061 79.4176 24.0227C78.9479 24.4318 78.3835 24.7538 77.7244 24.9886C77.0653 25.2159 76.304 25.3295 75.4403 25.3295ZM76.8267 21.9886C77.5388 21.9886 78.1676 21.8485 78.7131 21.5682C79.2585 21.2803 79.6866 20.8939 79.9972 20.4091C80.3078 19.9242 80.4631 19.375 80.4631 18.7614V16.9091C80.3116 17.0076 80.1032 17.0985 79.8381 17.1818C79.5805 17.2576 79.2888 17.3295 78.9631 17.3977C78.6373 17.4583 78.3116 17.5152 77.9858 17.5682C77.66 17.6136 77.3646 17.6553 77.0994 17.6932C76.5313 17.7765 76.035 17.9091 75.6108 18.0909C75.1866 18.2727 74.857 18.5189 74.6222 18.8295C74.3873 19.1326 74.2699 19.5114 74.2699 19.9659C74.2699 20.625 74.5085 21.1288 74.9858 21.4773C75.4706 21.8182 76.0843 21.9886 76.8267 21.9886Z" fill="white"/>
</svg>
